<?xml version="1.0" encoding="UTF-8" standalone="no"?>
<svg
   xmlns:dc="http://purl.org/dc/elements/1.1/"
   xmlns:cc="http://creativecommons.org/ns#"
   xmlns:rdf="http://www.w3.org/1999/02/22-rdf-syntax-ns#"
   xmlns:svg="http://www.w3.org/2000/svg"
   xmlns="http://www.w3.org/2000/svg"
   xmlns:sodipodi="http://sodipodi.sourceforge.net/DTD/sodipodi-0.dtd"
   xmlns:inkscape="http://www.inkscape.org/namespaces/inkscape"
   version="1.1"
   id="Capa_1"
   x="0px"
   y="0px"
   viewBox="0 0 512 512"   
   xml:space="preserve"   
   inkscape:version="1.0 (4035a4fb49, 2020-05-01)"><metadata
   id="metadata55"><rdf:RDF><cc:Work
       rdf:about=""><dc:format>image/svg+xml</dc:format><dc:type
         rdf:resource="http://purl.org/dc/dcmitype/StillImage" /><dc:title /></cc:Work></rdf:RDF></metadata><defs
   id="defs53" /><sodipodi:namedview
   
   objecttolerance="10"
   gridtolerance="10"
   guidetolerance="10"
  
   id="namedview51"
   showgrid="false" />
<g
   id="g20">
</g>
<g
   id="g22">
</g>
<g
   id="g24">
</g>
<g
   id="g26">
</g>
<g
   id="g28">
</g>
<g
   id="g30">
</g>
<g
   id="g32">
</g>
<g
   id="g34">
</g>
<g
   id="g36">
</g>
<g
   id="g38">
</g>
<g
   id="g40">
</g>
<g
   id="g42">
</g>
<g
   id="g44">
</g>
<g
   id="g46">
</g>
<g
   id="g48">
</g>
<path
   id="path1249-1-7"
   d="M 256.00006,9.6701348 A 246.33005,246.33005 0 0 0 9.6701985,256.00001 246.33005,246.33005 0 0 0 256.00006,502.32987 246.33005,246.33005 0 0 0 502.3298,256.00001 246.33005,246.33005 0 0 0 256.00006,9.6701348 Z m 55.44952,62.3933502 c 1.21576,-0.05151 2.60272,0.212854 4.19015,0.984995 5.08001,2.471867 4.38421,8.128423 3.91852,9.710431 l -41.78021,133.447229 96.27505,16.88132 c 0,0 3.47978,-0.25651 5.9086,4.5593 2.42892,4.81596 -1.35783,8.813 -1.35783,8.813 0,0 -171.42376,190.11402 -172.71122,191.33015 -1.28793,1.21576 -6.30811,4.51209 -10.76904,0.65493 -4.46102,-3.8565 -3.2396,-6.84792 -2.68598,-9.32443 0.46412,-1.71572 41.28163,-133.21154 41.28163,-133.21154 l -95.00627,-17.11481 c 0,0 -5.8181,-0.75938 -6.92904,-5.99974 -1.11134,-5.24091 2.07696,-7.72035 2.07696,-7.72035 L 305.63857,74.851222 c 1.29609,-1.050727 3.13724,-2.676466 5.81101,-2.787839 z"/></svg>
